<svg width="20" height="20" viewBox="0 0 20 20" fill="none" xmlns="http://www.w3.org/2000/svg">
<path d="M16.1272 12.5766C14.0031 12.5568 12.5976 14.6421 12.5976 14.6421C12.5976 14.6421 14.0681 14.3468 14.5975 14.9763C15.127 15.6058 14.6279 17.306 12.8327 17.1204C10.7439 16.9038 10.5187 15.3304 10.95 14.0523C11.4689 12.5143 14.0455 11.6044 15.4905 9.50776L16.2352 10.138L16.4075 7.19089C16.4266 7.06201 16.4343 6.92394 16.4449 6.78869L17.4212 6.82126C17.4212 6.82126 16.3129 3.72974 15.2251 2.52033C14.1372 1.31091 12.8722 0.760014 12.8722 0.760014L13.7744 0.277805C13.7744 0.277805 12.1275 -0.154838 11.1667 0.0611298C9.9702 0.330204 9.38922 0.744436 9.38922 0.744436C9.38922 0.744436 8.2541 0.835072 7.12604 1.1792V0.322415L4.6059 2.79152C3.54843 3.93792 2.50013 6.14291 3.5922 7.17318C5.57301 9.04183 7.06674 5.51484 7.56653 5.83914C8.06633 6.16345 7.2524 6.89774 7.2524 6.89774L5.70784 8.3734C5.66549 8.41376 5.68455 8.48598 5.74243 8.49448C6.1801 8.55679 7.57359 8.66725 8.58518 7.76302C9.80077 6.67681 10.2815 5.59273 10.2815 5.59273C10.2815 5.59273 11.4187 5.55307 11.9284 6.89066C12.4381 8.22824 10.8131 9.63805 10.8131 9.63805V8.34012C10.8131 8.34012 6.59519 11.3134 6.59519 15.2893C6.59519 22.0402 18.4977 20.9937 18.4977 15.5648C18.4977 12.6141 16.1251 12.5752 16.1251 12.5752L16.1272 12.5766ZM6.0481 4.96678C5.8102 5.2054 5.36759 5.28754 5.26946 5.19903C5.17134 5.11052 5.1784 4.57095 5.4163 4.33233C5.65419 4.0937 6.08904 4.15955 6.16316 4.21691C6.23728 4.27426 6.28599 4.72815 6.0481 4.96678ZM4.98992 15.2454L6.94603 18.9884C6.94603 18.9884 1.81327 15.0202 1.51961 13.5736C1.24854 12.2417 3.87739 10.1372 3.87739 10.1372L3.56396 13.427L5.22429 13.4355L4.99063 15.2454H4.98992Z" fill="#C8AA6E"/>
</svg>
