<?xml version="1.0" standalone="no"?> <!DOCTYPE svg PUBLIC "-//W3C//DTD SVG 20010904//EN" "http://www.w3.org/TR/2001/REC-SVG-20010904/DTD/svg10.dtd"> <svg version="1.0" xmlns="http://www.w3.org/2000/svg" width="22.000000pt" height="22.000000pt" viewBox="0 0 22.000000 22.000000" preserveAspectRatio="xMidYMid meet"> <g transform="translate(0.000000,22.000000) scale(0.100000,-0.100000)" fill="#96e7ff" stroke="none"> <path d="M98 203 c-30 -35 -29 -66 3 -133 34 -69 52 -67 42 6 -4 30 -1 49 11 65 36 52 -16 108 -56 62z"/> <path d="M7 163 c-15 -14 -5 -44 24 -75 l30 -33 -6 40 c-11 72 -25 92 -48 68z"/> <path d="M175 121 c-3 -6 -2 -28 1 -51 7 -45 26 -42 38 6 9 36 -22 71 -39 45z"/> </g> </svg>